<!DOCTYPE svg PUBLIC "-//W3C//DTD SVG 1.1//EN" "http://www.w3.org/Graphics/SVG/1.1/DTD/svg11.dtd">
<!-- Uploaded to: SVG Repo, www.svgrepo.com, Transformed by: SVG Repo Mixer Tools -->
<svg width="108px" height="108px" viewBox="-4.8 -4.8 33.60 33.60" fill="none" xmlns="http://www.w3.org/2000/svg">
<g id="SVGRepo_bgCarrier" stroke-width="0">
<path transform="translate(-4.8, -4.8), scale(2.1)" fill="#f2f2f2" d="M9.166.33a2.25 2.25 0 00-2.332 0l-5.25 3.182A2.25 2.25 0 00.5 5.436v5.128a2.25 2.25 0 001.084 1.924l5.25 3.182a2.25 2.25 0 002.332 0l5.25-3.182a2.25 2.25 0 001.084-1.924V5.436a2.25 2.25 0 00-1.084-1.924L9.166.33z" strokewidth="0"/>
</g>
<g id="SVGRepo_tracerCarrier" stroke-linecap="round" stroke-linejoin="round"/>
<g id="SVGRepo_iconCarrier"> <path d="M22 22L2 22" stroke="#ff7b0f" stroke-width="1.5" stroke-linecap="round"/> <path d="M2 11L10.1259 4.49931C11.2216 3.62279 12.7784 3.62279 13.8741 4.49931L22 11" stroke="#ff7b0f" stroke-width="1.5" stroke-linecap="round"/> <path d="M15.5 5.5V3.5C15.5 3.22386 15.7239 3 16 3H18.5C18.7761 3 19 3.22386 19 3.5V8.5" stroke="#ff7b0f" stroke-width="1.5" stroke-linecap="round"/> <path d="M4 22V9.5" stroke="#ff7b0f" stroke-width="1.5" stroke-linecap="round"/> <path d="M20 22V9.5" stroke="#ff7b0f" stroke-width="1.5" stroke-linecap="round"/> <path d="M15 22V17C15 15.5858 15 14.8787 14.5607 14.4393C14.1213 14 13.4142 14 12 14C10.5858 14 9.87868 14 9.43934 14.4393C9 14.8787 9 15.5858 9 17V22" stroke="#ff7b0f" stroke-width="1.5"/> <path d="M14 9.5C14 10.6046 13.1046 11.5 12 11.5C10.8954 11.5 10 10.6046 10 9.5C10 8.39543 10.8954 7.5 12 7.5C13.1046 7.5 14 8.39543 14 9.5Z" stroke="#ff7b0f" stroke-width="1.5"/> </g>
</svg>