<!DOCTYPE svg PUBLIC "-//W3C//DTD SVG 1.1//EN" "http://www.w3.org/Graphics/SVG/1.1/DTD/svg11.dtd">
<!-- Uploaded to: SVG Repo, www.svgrepo.com, Transformed by: SVG Repo Mixer Tools -->
<svg fill="#ff9500" height="101px" width="101px" version="1.1" id="Capa_1" xmlns="http://www.w3.org/2000/svg" xmlns:xlink="http://www.w3.org/1999/xlink" viewBox="-100.03 -100.03 503.18 503.18" xml:space="preserve" stroke="#ff9500" stroke-width="6.062480000000001">
<g id="SVGRepo_bgCarrier" stroke-width="0">
<path transform="translate(-100.03, -100.03), scale(31.448750000000004)" fill="#f2f2f2" d="M9.166.33a2.25 2.25 0 00-2.332 0l-5.25 3.182A2.25 2.25 0 00.5 5.436v5.128a2.25 2.25 0 001.084 1.924l5.25 3.182a2.25 2.25 0 002.332 0l5.25-3.182a2.25 2.25 0 001.084-1.924V5.436a2.25 2.25 0 00-1.084-1.924L9.166.33z" strokewidth="0"/>
</g>
<g id="SVGRepo_tracerCarrier" stroke-linecap="round" stroke-linejoin="round"/>
<g id="SVGRepo_iconCarrier"> <path d="M290.245,85.686c-1.136-1.469-2.889-2.33-4.747-2.33h-67.717L163.252,2.642c-1.855-2.746-5.585-3.468-8.331-1.613 c-2.746,1.855-3.468,5.584-1.613,8.33l49.991,73.997H87.169l49.99-73.997c1.855-2.746,1.133-6.475-1.613-8.33 c-2.746-1.855-6.476-1.134-8.331,1.613L72.687,83.356H6c-1.857,0-3.61,0.86-4.747,2.33c-1.136,1.469-1.528,3.382-1.06,5.18 l41.773,160.635c0.688,2.644,3.075,4.49,5.807,4.49h195.953c2.732,0,5.119-1.846,5.807-4.49l41.772-160.635 C291.772,89.069,291.381,87.156,290.245,85.686z M253.011,190.445h-59.857v-41.546h70.661L253.011,190.445z M181.153,190.445h-70.81 v-41.546h70.81V190.445z M181.153,202.445v41.546h-70.81v-41.546H181.153z M27.684,148.899h70.66v41.546H38.487L27.684,148.899z M110.344,136.899V95.356h70.81v41.543H110.344z M75.862,95.356c0.002,0,0.004,0,0.007,0c0.003,0,0.005,0,0.008,0h22.466v41.543 H24.563L13.76,95.356H75.862z M41.608,202.445h56.735v41.546H52.412L41.608,202.445z M239.086,243.991h-45.933v-41.546h56.737 L239.086,243.991z M266.935,136.899h-73.782V95.356h21.438c0.003,0,0.005,0,0.008,0c0.002,0,0.004,0,0.007,0h63.132L266.935,136.899 z"/> </g>
</svg>