<!DOCTYPE svg PUBLIC "-//W3C//DTD SVG 1.1//EN" "http://www.w3.org/Graphics/SVG/1.1/DTD/svg11.dtd">
<!-- Uploaded to: SVG Repo, www.svgrepo.com, Transformed by: SVG Repo Mixer Tools -->
<svg width="124px" height="124px" viewBox="-1.5 -1.5 18.00 18.00" version="1.1" id="jewelry-store" xmlns="http://www.w3.org/2000/svg" fill="#ff7b0f" stroke="#ff7b0f">
<g id="SVGRepo_bgCarrier" stroke-width="0">
<path transform="translate(-1.5, -1.5), scale(1.125)" fill="#f0f0f0" d="M9.166.33a2.25 2.25 0 00-2.332 0l-5.25 3.182A2.25 2.25 0 00.5 5.436v5.128a2.25 2.25 0 001.084 1.924l5.25 3.182a2.25 2.25 0 002.332 0l5.25-3.182a2.25 2.25 0 001.084-1.924V5.436a2.25 2.25 0 00-1.084-1.924L9.166.33z" strokewidth="0"/>
</g>
<g id="SVGRepo_tracerCarrier" stroke-linecap="round" stroke-linejoin="round"/>
<g id="SVGRepo_iconCarrier"> <path d="M12,8.5c0,2.4853-2.0147,4.5-4.5,4.5S3,10.9853,3,8.5c0-1.8483,1.1164-3.4329,2.7099-4.1255l0.1761,0.137l0.7739,0.6019&#10;&#9;C5.1366,5.4922,4,6.8611,4,8.5C4,10.4299,5.5701,12,7.5,12S11,10.4299,11,8.5c0-1.6389-1.1366-3.0078-2.6599-3.3866l0.95-0.7388&#10;&#9;C10.8836,5.0672,12,6.6517,12,8.5z M7.5,4.5L10,2.5555L9,1H6L5,2.5555l1.5,1.1667L7.5,4.5z"/> </g>
</svg>